<?xml version="1.0" standalone="no"?>
<!DOCTYPE svg PUBLIC "-//W3C//DTD SVG 20010904//EN"
 "http://www.w3.org/TR/2001/REC-SVG-20010904/DTD/svg10.dtd">
<svg version="1.0" xmlns="http://www.w3.org/2000/svg"
 width="321.000000pt" height="321.000000pt" viewBox="0 0 321.000000 321.000000"
 preserveAspectRatio="xMidYMid meet">
<metadata>
Created by potrace 1.14, written by Peter Selinger 2001-2017
</metadata>
<g transform="translate(0.000000,321.000000) scale(0.100000,-0.100000)"
fill="#000000" stroke="none">
<path d="M250 3025 l0 -185 55 0 55 0 0 -312 0 -313 -176 -75 c-97 -41 -178
-80 -180 -85 -3 -6 -3 -128 -2 -272 l3 -262 255 111 c140 60 393 170 563 243
l307 133 0 -174 0 -174 -382 0 c-429 0 -432 -1 -495 -73 -65 -75 -69 -194 -9
-264 l24 -27 -23 -31 c-58 -78 -58 -185 -1 -252 l24 -27 -23 -31 c-58 -78 -58
-185 -1 -252 l24 -27 -23 -31 c-58 -78 -58 -185 -1 -252 l24 -27 -23 -31 c-76
-100 -42 -261 67 -314 l44 -21 1249 0 1249 0 44 21 c109 53 143 214 67 314
l-23 31 24 27 c57 67 57 174 -1 252 l-23 31 24 27 c57 67 57 174 -1 252 l-23
31 24 27 c57 67 57 174 -1 252 l-23 31 24 27 c60 70 56 189 -9 264 -63 72 -66
73 -494 73 l-383 0 0 174 0 174 308 -133 c169 -73 422 -183 562 -243 l255
-111 3 266 c1 147 -1 270 -5 274 -13 12 -1584 689 -1598 689 -8 0 -87 -32
-177 -71 -90 -39 -178 -77 -196 -84 l-32 -14 0 130 0 129 50 0 50 0 0 185 0
185 -525 0 -525 0 0 -185z m940 5 l0 -70 -410 0 -410 0 0 70 0 70 410 0 410 0
0 -70z m-112 -347 l-3 -157 -295 -128 c-162 -70 -298 -128 -302 -128 -5 0 -8
128 -8 285 l0 285 305 0 306 0 -3 -157z m1284 -383 l733 -317 3 -143 c2 -133
1 -142 -15 -137 -10 2 -346 147 -746 321 -401 174 -730 316 -732 316 -2 0
-331 -142 -732 -316 -400 -174 -736 -319 -746 -321 -16 -5 -17 4 -15 137 l3
143 744 322 c410 178 750 321 757 318 7 -3 343 -148 746 -323z m-603 -152
l145 -63 -146 -3 c-81 -1 -215 -1 -299 0 l-153 3 140 62 c76 34 146 62 154 62
8 1 80 -27 159 -61z m-209 -233 l0 -45 -150 0 -150 0 0 45 0 45 150 0 150 0 0
-45z m410 0 l0 -45 -150 0 -150 0 0 45 0 45 150 0 150 0 0 -45z m-410 -205 l0
-50 -150 0 -150 0 0 50 0 50 150 0 150 0 0 -50z m410 0 l0 -50 -150 0 -150 0
0 50 0 50 150 0 150 0 0 -50z m-1477 -200 c84 -93 -50 -214 -139 -125 -60 60
-2 174 81 160 17 -3 42 -19 58 -35z m2111 3 c-17 -48 -17 -78 0 -125 l14 -38
-352 0 -351 0 -45 30 c-139 93 -371 93 -510 0 l-45 -30 -351 0 -352 0 14 38
c7 20 13 48 13 62 0 14 -6 42 -13 63 l-14 37 1003 0 1003 0 -14 -37z m239 26
c36 -19 57 -52 57 -92 0 -95 -132 -130 -175 -46 -21 39 -19 72 6 103 33 42 73
55 112 35z m-1079 -234 c71 -34 137 -99 173 -173 l28 -57 3 -482 3 -483 -356
0 -356 0 3 483 3 482 28 57 c47 97 140 173 241 199 58 15 169 3 230 -26z
m-1271 -106 c68 -74 -10 -187 -104 -149 -39 17 -59 46 -59 90 0 40 24 75 60
89 36 15 71 5 103 -30z m717 37 c0 -2 -11 -28 -25 -57 -13 -30 -27 -73 -31
-96 l-6 -43 -268 0 -268 0 14 38 c7 20 13 48 13 62 0 14 -6 42 -13 63 l-14 37
299 0 c165 0 299 -2 299 -4z m1394 -33 c-7 -21 -13 -49 -13 -63 0 -14 6 -42
13 -62 l14 -38 -268 0 -268 0 -6 43 c-4 23 -18 66 -31 96 -14 29 -25 55 -25
57 0 2 134 4 299 4 l299 0 -14 -37z m234 26 c38 -13 62 -48 62 -91 0 -42 -20
-72 -59 -88 -89 -36 -169 69 -110 144 19 24 49 43 70 45 3 1 20 -4 37 -10z
m-2345 -340 c68 -74 -10 -187 -104 -149 -39 17 -59 46 -59 90 1 41 16 64 56
85 38 20 72 12 107 -26z m647 -59 l0 -100 -261 0 -261 0 9 33 c11 42 7 120 -7
146 -11 21 -11 21 255 21 l265 0 0 -100z m1470 79 c-14 -26 -18 -104 -7 -146
l9 -33 -261 0 -261 0 0 100 0 100 265 0 c266 0 266 0 255 -21z m223 12 c41
-16 67 -51 67 -91 0 -44 -20 -73 -59 -90 -89 -36 -169 69 -110 144 32 41 63
52 102 37z m-2340 -342 c45 -49 34 -114 -25 -145 -95 -49 -189 75 -110 148 15
14 34 28 42 31 27 9 65 -4 93 -34z m647 -59 l0 -100 -261 0 -261 0 9 33 c11
42 7 120 -7 146 -11 21 -11 21 255 21 l265 0 0 -100z m1470 79 c-14 -26 -18
-104 -7 -146 l9 -33 -261 0 -261 0 0 100 0 100 265 0 c266 0 266 0 255 -21z
m263 -17 c78 -73 -16 -197 -111 -148 -58 30 -70 94 -27 145 40 47 89 49 138 3z
m-2373 -319 c37 -47 23 -111 -30 -138 -44 -23 -78 -19 -111 14 -38 38 -39 87
-4 130 41 47 105 45 145 -6z m640 -53 l0 -100 -261 0 -261 0 9 32 c11 43 7
121 -7 147 -11 21 -11 21 255 21 l265 0 0 -100z m1470 79 c-14 -26 -18 -104
-7 -146 l9 -33 -261 0 -261 0 0 100 0 100 265 0 c266 0 266 0 255 -21z m265
-21 c35 -42 34 -91 -4 -129 -33 -33 -67 -37 -111 -14 -73 38 -65 137 12 169
41 18 74 9 103 -26z"/>
<path d="M1778 719 c-21 -12 -24 -69 -6 -87 20 -20 76 -15 88 7 31 59 -25 114
-82 80z"/>
</g>
</svg>
